curl
version=1
nRows=179
nColumns=3
inDegrees=yes
endheader
time	r_shoulder_elev	r_elbow_flex
9.4200	32.683035	128.000000
9.4300	32.688000	128.000000
9.4400	32.691510	128.000000
9.4500	32.693102	127.791296
9.4600	32.692318	126.836433
9.4700	32.688711	125.830258
9.4800	32.681852	124.776365
9.4900	32.671338	123.678382
9.5000	32.656799	122.539952
9.5100	32.637902	121.364701
9.5200	32.614361	120.156217
9.5300	32.585939	118.918021
9.5400	32.552449	117.653553
9.5500	32.513765	116.366150
9.5600	32.469819	115.059029
9.5700	32.420603	113.735271
9.5800	32.366171	112.397813
9.5900	32.306640	111.049435
9.6000	32.242186	109.692750
9.6100	32.173045	108.330203
9.6200	32.099507	106.964068
9.6300	32.021915	105.596443
9.6400	31.940660	104.229253
9.6500	31.856175	102.864255
9.6600	31.768930	101.503043
9.6700	31.679425	100.147052
9.6800	31.588188	98.797566
9.6900	31.495760	97.455729
9.7000	31.402695	96.122552
9.7100	31.309551	94.798920
9.7200	31.216882	93.485606
9.7300	31.125231	92.183275
9.7400	31.035127	90.892496
9.7500	30.947075	89.613748
9.7600	30.861551	88.347429
9.7700	30.778999	87.093857
9.7800	30.699826	85.853281
9.7900	30.624396	84.625879
9.8000	30.553029	83.411763
9.8100	30.486001	82.210980
9.8200	30.423538	81.023510
9.8300	30.365819	79.849270
9.8400	30.312972	78.688106
9.8500	30.265079	77.539799
9.8600	30.222174	76.404058
9.8700	30.184246	75.280518
9.8800	30.151240	74.168744
9.8900	30.123060	73.068226
9.9000	30.099570	71.978380
9.9100	30.080601	70.898552
9.9200	30.065950	69.828016
9.9300	30.055384	68.765983
9.9400	30.048646	67.711604
9.9500	30.045453	66.663977
9.9600	30.045507	65.622154
9.9700	30.048488	64.585157
9.9800	30.054067	63.551980
9.9900	30.061902	62.521613
10.0000	30.071644	61.493048
10.0100	30.082939	60.465299
10.0200	30.095429	59.437421
10.0300	30.108759	58.408525
10.0400	30.122573	57.377797
10.0500	30.136522	56.344521
10.0600	30.150262	55.308095
10.0700	30.163458	54.268049
10.0800	30.175788	53.224064
10.0900	30.186941	52.175983
10.1000	30.196624	51.123826
10.1100	30.204559	50.067798
10.1200	30.210490	49.008293
10.1300	30.214183	47.945901
10.1400	30.215428	46.881398
10.1500	30.214041	45.815749
10.1600	30.209865	44.750098
10.1700	30.202777	43.685755
10.1800	30.192682	42.624182
10.1900	30.179519	41.566978
10.2000	30.163260	40.515859
10.2100	30.143912	39.472638
10.2200	30.121515	38.439203
10.2300	30.096144	37.417488
10.2400	30.067905	36.409458
10.2500	30.036934	35.417075
10.2600	30.003398	34.442279
10.2700	29.967489	33.486959
10.2800	29.929420	32.552931
10.2900	29.889426	31.641919
10.3000	29.847756	30.755525
10.3100	29.804670	29.895221
10.3200	29.760435	29.062327
10.3300	29.715321	28.257999
10.3400	29.669595	27.483220
10.3500	29.623518	26.738793
10.3600	29.577341	26.025339
10.3700	29.531300	25.343293
10.3800	29.485614	24.692913
10.3900	29.440481	24.074283
10.4000	29.396079	23.487326
10.4100	29.352558	22.931812
10.4200	29.310047	22.407379
10.4300	29.268648	21.913548
10.4400	29.228442	21.449746
10.4500	29.189483	21.015325
10.4600	29.151809	20.609588
10.4700	29.115435	20.231812
10.4800	29.080365	19.881275
10.4900	29.046589	19.557276
10.5000	29.014090	19.259166
10.5100	28.982847	18.986366
10.5200	28.952839	18.738392
10.5300	28.924048	18.514873
10.5400	28.896465	18.315574
10.5500	28.870090	18.140407
10.5600	28.844940	17.989449
10.5700	28.821046	17.862952
10.5800	28.798459	17.761349
10.5900	28.777251	17.685261
10.6000	28.757514	17.635496
10.6100	28.739362	17.613048
10.6200	28.722928	17.619094
10.6300	28.708367	17.654976
10.6400	28.695851	17.722197
10.6500	28.685566	17.822399
10.6600	28.677712	17.957344
10.6700	28.672496	18.128888
10.6800	28.670131	18.338959
10.6900	28.670829	18.589526
10.7000	28.674801	18.882566
10.7100	28.682246	19.220034
10.7200	28.693350	19.603828
10.7300	28.708284	20.035758
10.7400	28.727194	20.517508
10.7500	28.750198	21.050605
10.7600	28.777388	21.636392
10.7700	28.808818	22.275991
10.7800	28.844508	22.970287
10.7900	28.884438	23.719896
10.8000	28.928548	24.525156
10.8100	28.976736	25.386103
10.8200	29.028860	26.302470
10.8300	29.084738	27.273678
10.8400	29.144149	28.298833
10.8500	29.206833	29.376735
10.8600	29.272501	30.505884
10.8700	29.340831	31.684492
10.8800	29.411477	32.910500
10.8900	29.484072	34.181599
10.9000	29.558236	35.495250
10.9100	29.633577	36.848715
10.9200	29.709700	38.239085
10.9300	29.786215	39.663306
10.9400	29.862737	41.118219
10.9500	29.938899	42.600586
10.9600	30.014353	44.107122
10.9700	30.088778	45.634531
10.9800	30.161882	47.179530
10.9900	30.233413	48.738877
11.0000	30.303155	50.309396
11.0100	30.370941	51.887996
11.0200	30.436645	53.471688
11.0300	30.500196	55.057603
11.0400	30.561568	56.642997
11.0500	30.620790	58.225264
11.0600	30.677938	59.801942
11.0700	30.733139	61.370710
11.0800	30.786565	62.929398
11.0900	30.838433	64.475981
11.1000	30.888998	66.008577
11.1100	30.938548	67.525450
11.1200	30.987403	69.025005
11.1300	31.035902	70.505782
11.1400	31.084400	71.966461
11.1500	31.133261	73.405857
11.1600	31.182847	74.822918
11.1700	31.233517	76.216731
11.1800	31.285610	77.586517
11.1900	31.339446	78.931645
11.2000	31.395311	80.251625
